<svg id="Layer_1" xmlns="http://www.w3.org/2000/svg" version="1.1" viewBox="0 0 800 800">
  <defs>
    <style>
      .st0 {
        fill: #fff;
      }
    </style>
  </defs>
  <path class="st0" d="M687,639.7c77.1-103.3,55.8-249.5-47.5-326.5-13.6-10.2-28.3-18.8-43.8-25.8-25.2-145.1-163.3-242.3-308.4-217.1C142.2,95.5,45,233.6,70.2,378.7c7.5,43.2,25.5,83.8,52.5,118.3l-46.3,46c-9.5,9.6-12.2,23.9-7,36.3,5.1,12.4,17.2,20.6,30.7,20.7h189.7c38.6,81.3,120.4,133.1,210.3,133.3h200c13.5,0,25.6-8.2,30.7-20.7,5.2-12.4,2.5-26.7-7-36.3l-36.7-36.7ZM266.7,500c0,11.2.9,22.3,2.7,33.3h-89l11.7-11.3c13.1-13,13.2-34.1.2-47.1,0,0-.1-.1-.2-.2-37.7-37.3-58.9-88.3-58.7-141.3,0-110.5,89.5-200,200-200,84.9-.5,160.6,53.1,188.3,133.3h-21.7c-128.9,0-233.3,104.5-233.3,233.3ZM618,666.7l1.7,1.7h-119.7c-92-.2-166.5-74.9-166.4-167,.2-92,74.9-166.5,167-166.4,92,.2,166.5,74.9,166.4,167,0,44.2-17.7,86.5-49,117.7-6.3,6.2-9.9,14.5-10,23.3,0,8.9,3.6,17.4,10,23.7Z"/>
</svg>