<?xml version="1.0" encoding="UTF-8"?><svg id="a" xmlns="http://www.w3.org/2000/svg" viewBox="0 0 1439.37 267.54"><rect id="b" width="456.74" height="267.22" rx="100" ry="100" style="fill:#5e17eb;"/><path d="M57.96,198.11c.39-2.19.58-4.58.58-7.16v-121.58h19.36l51.3,80.73v-74.15c0-3.55-.32-5.74-.97-6.58h26.13c-.32,2.58-.48,5.42-.48,8.52v120.22h-20.13l-50.53-77.53v77.53h-25.26Z" style="fill:#fff;"/><path d="M253.39,174.88c4,0,6.78-.39,8.32-1.16l.39.1-.97,24.3h-72.5V68.69c1.74.13,3.68.23,5.81.29l6.78.19c4.52.13,9.42.19,14.71.19,14.78,0,29.39-.26,43.85-.77-.71,5.68-1.07,13.26-1.07,22.75,0,1.03.06,1.81.19,2.32l-.19.29c-3.36-.97-8.13-1.45-14.33-1.45h-30.49v24.68h22.94c7.1,0,11.36-.19,12.78-.58l.29,23.91c-3.1-.32-7.1-.48-12-.48h-24.01v34.85h39.49Z" style="fill:#fff;"/><path d="M298.5,182.81c-5.87-5.61-10.5-12.36-13.89-20.23-3.39-7.87-5.08-16.5-5.08-25.89s1.58-18.28,4.74-26.67c3.16-8.39,7.68-15.78,13.55-22.17,5.87-6.39,12.97-11.47,21.3-15.25,8.32-3.77,17.65-5.66,27.97-5.66,17.81,0,32.81,5.61,45.01,16.84,13.03,12,19.55,28.2,19.55,48.59s-6.71,36.17-20.13,49.27c-8.26,8.07-18.1,13.62-29.52,16.65-5.61,1.48-12.18,2.23-19.7,2.23s-15.23-1.55-23.13-4.65c-7.91-3.1-14.79-7.45-20.67-13.07ZM306.44,135.39c0,6,1,11.52,3,16.55,2,5.03,4.77,9.36,8.32,12.97,7.55,7.62,17.26,11.42,29.14,11.42s20.36-3.64,27.2-10.94c6.97-7.55,10.45-17.84,10.45-30.88,0-12.26-3.32-22.49-9.97-30.68-7.16-8.78-16.97-13.16-29.43-13.16s-21.65,4.45-28.75,13.36c-6.65,8.33-9.97,18.78-9.97,31.36Z" style="fill:#fff;"/><path d="M505.77,199.01c-5.55-.52-12.04-.77-19.46-.77h-7.65l42.11-117.99c1.87-5.29,2.81-8.37,2.81-9.24s-.03-1.4-.1-1.6l.1-.19c4.19.19,8.65.29,13.36.29,3.87,0,8.52-.06,13.94-.19l.1.19c-.13.26-.19.61-.19,1.06,0,1.23.97,4.49,2.9,9.78l42.98,118.19c-1.29-.06-2.81-.1-4.55-.1l-5.03-.19h-19.36l-9.1-27.88h-43.75l-9.1,28.65ZM551.07,147.13l-14.62-45.01-14.23,45.01h28.85Z" style="fill:#5e17eb;"/><path d="M685.62,69.02c4,.32,7.32.48,9.97.48h8.03c2.71,0,5.55-.26,8.52-.77v80.05c0,15.88-4.81,28.62-14.42,38.23-9.1,9.1-20.52,13.65-34.27,13.65-15.04,0-27.2-3.9-36.49-11.71-10.39-8.78-15.58-21.42-15.58-37.94v-81.99c5.36.32,10.41.48,15.15.48s8.66-.26,11.76-.77v83.54c0,8.13,2.48,14.46,7.45,18.97,4.65,4.13,10.45,6.19,17.42,6.19,10.32,0,17.2-5.29,20.62-15.87,1.23-3.81,1.84-8.52,1.84-14.13v-78.41Z" style="fill:#5e17eb;"/><path d="M791.13,198.82c-3.1-.39-11.07-.58-23.91-.58h-3.1v-107.06h-19.17c-5.68,0-9.04.29-10.07.87-1.03.58-1.84,1.1-2.42,1.55l-.29-.1v-24.78l.29-.29c2.13.71,7.87,1.06,17.23,1.06h60.69c5.68,0,9.03-.29,10.07-.87,1.03-.58,1.84-1.1,2.42-1.55l.29.1v24.78l-.29.29c-2.13-.71-7.87-1.06-17.23-1.06h-14.52v107.64Z" style="fill:#5e17eb;"/><path d="M854.53,182.94c-5.87-5.61-10.5-12.36-13.89-20.23-3.39-7.87-5.08-16.5-5.08-25.89s1.58-18.28,4.74-26.67c3.16-8.39,7.68-15.78,13.55-22.17,5.87-6.39,12.97-11.47,21.29-15.25,8.32-3.78,17.65-5.66,27.97-5.66,17.81,0,32.81,5.61,45.01,16.84,13.03,12,19.55,28.2,19.55,48.59s-6.71,36.17-20.13,49.27c-8.26,8.07-18.1,13.62-29.52,16.65-5.61,1.48-12.18,2.23-19.7,2.23s-15.23-1.55-23.13-4.65c-7.91-3.1-14.79-7.45-20.67-13.07ZM862.46,135.51c0,6,1,11.52,3,16.55,2,5.03,4.77,9.36,8.32,12.97,7.55,7.62,17.26,11.42,29.14,11.42s20.36-3.64,27.2-10.94c6.97-7.55,10.45-17.84,10.45-30.88,0-12.26-3.32-22.49-9.97-30.68-7.16-8.77-16.97-13.16-29.43-13.16s-21.65,4.45-28.75,13.36c-6.65,8.32-9.97,18.78-9.97,31.36Z" style="fill:#5e17eb;"/><path d="M1018.69,198.82c-3.1-.39-9.07-.58-17.91-.58h-7.74V69.11c4.13.26,8.68.39,13.65.39s8.49-.26,10.55-.77l32.52,55.27,31.27-55.27c2.06.52,6,.77,11.81.77s10.78-.13,14.91-.39v129.12h-7.74c-8.84,0-14.81.19-17.91.58v-86.73l-31.65,56.63-31.75-52.08v82.18Z" style="fill:#5e17eb;"/><path d="M1150.92,199.01c-5.55-.52-12.04-.77-19.46-.77h-7.65l42.11-117.99c1.87-5.29,2.81-8.37,2.81-9.24s-.03-1.4-.1-1.6l.1-.19c4.19.19,8.65.29,13.36.29,3.87,0,8.52-.06,13.94-.19l.1.19c-.13.26-.19.61-.19,1.06,0,1.23.97,4.49,2.9,9.78l42.98,118.19c-1.29-.06-2.81-.1-4.55-.1l-5.03-.19h-19.36l-9.1-27.88h-43.75l-9.1,28.65ZM1196.22,147.13l-14.62-45.01-14.23,45.01h28.85Z" style="fill:#5e17eb;"/><path d="M1303.85,198.82c-3.1-.39-11.07-.58-23.91-.58h-3.1v-107.06h-19.17c-5.68,0-9.04.29-10.07.87-1.03.58-1.84,1.1-2.42,1.55l-.29-.1v-24.78l.29-.29c2.13.71,7.87,1.06,17.23,1.06h60.69c5.68,0,9.03-.29,10.07-.87,1.03-.58,1.84-1.1,2.42-1.55l.29.1v24.78l-.29.29c-2.13-.71-7.87-1.06-17.23-1.06h-14.52v107.64Z" style="fill:#5e17eb;"/><path d="M1421.46,175.01c4,0,6.78-.39,8.32-1.16l.39.1-.97,24.3h-72.5V68.82c1.74.13,3.68.23,5.81.29l6.78.19c4.52.13,9.42.19,14.71.19,14.78,0,29.39-.26,43.85-.77-.71,5.68-1.06,13.26-1.06,22.75,0,1.03.06,1.81.19,2.32l-.19.29c-3.36-.97-8.13-1.45-14.33-1.45h-30.49v24.68h22.94c7.1,0,11.36-.19,12.78-.58l.29,23.91c-3.1-.32-7.1-.48-12-.48h-24v34.85h39.49Z" style="fill:#5e17eb;"/></svg>